
<svg width="1231px" height="2188px" viewBox="0 0 1231 2188" version="1.1" xmlns="http://www.w3.org/2000/svg" xmlns:xlink="http://www.w3.org/1999/xlink">
    <!-- Generator: Sketch 46.2 (44496) - http://www.bohemiancoding.com/sketch -->
    <desc>Created with Sketch.</desc>
    <defs></defs>
    <g id="Page-1" stroke="none" stroke-width="1" fill="none" fill-rule="evenodd">
        <g stroke="#FF00FF">
            <polygon id="Stroke-1" points="0.5 2187.17 1230.5 2187.17 1230.5 0.503 0.5 0.503"></polygon>
            <polyline id="Stroke-3" points="570.5 693.3366 615.5 693.3366 660.5 693.3366 660.5 773.3366 660.5 853.3366 615.5 853.3366 570.5 853.3366 570.5 773.3366 570.5 693.3366"></polyline>
            <polyline id="Stroke-4" points="510.5 933.3366 525.5 933.3366 540.5 933.3366 540.5 1093.3366 540.5 1253.3366 525.5 1253.3366 510.5 1253.3366 510.5 1093.3366 510.5 933.3366"></polyline>
            <polyline id="Stroke-5" points="540.5 1093.3366 555.5 1093.3366 570.5 1093.3366 570.5 1273.3366 570.5 1453.3366 555.5 1453.3366 540.5 1453.3366 540.5 1273.3366 540.5 1093.3366"></polyline>
            <polyline id="Stroke-6" points="660.5 1093.3366 675.5 1093.3366 690.5 1093.3366 690.5 1273.3366 690.5 1453.3366 675.5 1453.3366 660.5 1453.3366 660.5 1273.3366 660.5 1093.3366"></polyline>
            <polyline id="Stroke-7" points="690.5 933.3366 705.5 933.3366 720.5 933.3366 720.5 1093.3366 720.5 1253.3366 705.5 1253.3366 690.5 1253.3366 690.5 1093.3366 690.5 933.3366"></polyline>
            <polyline id="Stroke-8" points="540.5 933.3366 615.5 933.3366 690.5 933.3366 690.5 1013.3366 690.5 1093.3366 615.5 1093.3366 540.5 1093.3366 540.5 1013.3366 540.5 933.3366"></polyline>
        </g>
    </g>
</svg>