<?xml version="1.0" encoding="utf-8"?>
<!-- Generator: Adobe Illustrator 20.1.0, SVG Export Plug-In . SVG Version: 6.00 Build 0)  -->
<svg version="1.1" id="Layer_1" xmlns="http://www.w3.org/2000/svg" xmlns:xlink="http://www.w3.org/1999/xlink" x="0px" y="0px"
	 viewBox="0 0 100 100" enable-background="new 0 0 100 100" xml:space="preserve">
<path fill="none" stroke="#00FF00" stroke-miterlimit="10" d="M13.4,20.8h21c0.6,0,1.1,0.2,1.7,0.5c0.2,0.2,0.5,0.3,0.7,0.6l0.1-0.4
	c0.1-0.4,0.5-0.7,0.9-0.7H97c0.4,0,0.8,0.3,0.9,0.6c0.1,0.4,0,0.8-0.3,1.1L84.1,34.5c-0.3,0.3-0.8,0.3-1.2,0.1s-0.5-0.7-0.4-1.2
	l1.1-3.3h-1.5l-7,20.4h13.2c1,0,1.9,0.5,2.5,1.3c0.7,0.9,0.9,2.1,0.5,3.2l-7.1,21c0,0.1-0.1,0.2-0.2,0.3l-6.2,7.3
	c-0.2,0.2-0.5,0.3-0.8,0.3H13.5L9.8,94.4c-0.1,0.4-0.5,0.7-0.9,0.7c0,0-0.1,0-0.1,0c-0.5,0-0.8-0.4-0.9-0.9L2,52.5
	c0-0.2,0-0.3,0-0.5l10.4-30.5 M83.3,75.6L83.3,75.6L83.3,75.6z"/>
</svg>
