<?xml version="1.0" encoding="utf-8"?>
<!-- Generator: Adobe Illustrator 20.1.0, SVG Export Plug-In . SVG Version: 6.00 Build 0)  -->
<svg version="1.1" id="Layer_1" xmlns="http://www.w3.org/2000/svg" xmlns:xlink="http://www.w3.org/1999/xlink" x="0px" y="0px"
	 viewBox="0 0 100 100" enable-background="new 0 0 100 100" xml:space="preserve">
<g>
	<polygon fill="#17E81F" points="18.6,9.1 16.9,17.9 19.1,17.9 20.3,11.3 20.3,11.6 21.4,17.9 23.6,17.9 21.9,9.1 	"/>
	<rect x="24.1" y="9.1" fill="#17E81F" width="2" height="8.8"/>
	<polygon fill="#17E81F" points="27.8,12.6 26.8,12.6 26.8,14.3 27.8,14.3 27.8,17.9 29.8,17.9 29.8,9.1 27.8,9.1 	"/>
	<path fill="#17E81F" d="M71.8,9.3c-0.1-0.1-0.1-0.1-0.2-0.2c-0.1,0-0.1-0.1-0.2-0.1h-5v8.8h5c0.1,0,0.1,0,0.2-0.1
		c0.1,0,0.1-0.1,0.2-0.2c0.1-0.1,0.1-0.1,0.1-0.2c0-0.1,0.1-0.1,0.1-0.2v-3.2l-0.7-0.6L72,13V9.7c0,0,0-0.1-0.1-0.2
		C71.9,9.4,71.9,9.4,71.8,9.3z M70,16.2h-1.8v-0.7l1.8-1.3V16.2z M70,12.1l-1.7,1.3l0-2.6H70V12.1z"/>
	<path fill="#17E81F" d="M16.2,9.3c-0.1-0.1-0.1-0.1-0.2-0.2c-0.1,0-0.1-0.1-0.2-0.1h-4.9v8.2c0,0,0,0.1,0.1,0.2
		c0,0.1,0.1,0.1,0.1,0.2c0.1,0.1,0.1,0.1,0.2,0.2c0.1,0,0.1,0.1,0.2,0.1h4.9V9.7c0,0,0-0.1-0.1-0.2C16.3,9.4,16.3,9.4,16.2,9.3z
		 M14.4,16.2h-1.1c0,0-0.1,0-0.1,0c0,0-0.1-0.1-0.1-0.1c0,0-0.1-0.1-0.1-0.1c0,0,0-0.1,0-0.1v-5H14c0,0,0.1,0,0.1,0
		c0,0,0.1,0.1,0.1,0.1c0,0,0.1,0.1,0.1,0.1c0,0,0,0.1,0,0.1V16.2z"/>
	<polygon fill="#17E81F" points="62.9,12.6 61.2,9.1 59.3,9.1 59.3,16.2 55.2,16.2 55.2,14.3 57.5,14.3 57.5,12.6 55.2,12.6 
		55.2,10.8 57.5,10.8 57.5,9.1 53.2,9.1 53.2,17.9 59.3,17.9 61.3,17.9 61.3,13.6 63.6,17.9 65,17.9 65,9.1 62.9,9.1 	"/>
	<polygon fill="#17E81F" points="81.1,14.3 83.7,14.3 83.7,12.6 81.1,12.6 81.1,10.8 83.9,10.8 83.9,9.1 79,9.1 79,16.2 75,16.2 
		75,14.3 77.6,14.3 77.7,12.6 75,12.6 75,10.8 77.7,10.8 77.7,9.1 73,9.1 73,17.9 79,17.9 79.1,17.9 83.9,17.9 83.9,16.2 81.1,16.2 
			"/>
	<polygon fill="#17E81F" points="84.9,17.9 86.9,17.9 86.9,14.4 86.3,13.6 86.9,12 86.9,9.1 84.9,9.1 	"/>
	<polygon fill="#17E81F" points="88.7,9.1 86.9,13.6 88.3,15.4 88.3,17.9 90.3,17.9 90.3,15.1 88.9,13.6 90.6,9.1 	"/>
	<path fill="#17E81F" d="M52.1,9.3c-0.1-0.1-0.1-0.1-0.2-0.2c-0.1,0-0.1-0.1-0.2-0.1h-4.9V15v2.9h4.9c0.1,0,0.1,0,0.2-0.1
		c0.1,0,0.1-0.1,0.2-0.2c0.1-0.1,0.1-0.1,0.1-0.2c0-0.1,0.1-0.1,0.1-0.2V15V9.7c0,0,0-0.1-0.1-0.2C52.2,9.4,52.1,9.4,52.1,9.3z
		 M50.2,15.8c0,0,0,0.1,0,0.1c0,0-0.1,0.1-0.1,0.1c0,0-0.1,0.1-0.1,0.1c0,0-0.1,0-0.1,0h-1.1v-5.4h1.1c0,0,0.1,0,0.1,0
		c0,0,0.1,0.1,0.1,0.1c0,0,0.1,0.1,0.1,0.1c0,0,0,0.1,0,0.1V15.8z"/>
	<polygon fill="#17E81F" points="7.6,12.7 5.9,9.1 3.9,9.1 3.9,17.9 6,17.9 6,13.6 8.2,17.9 9.6,17.9 9.6,17.9 9.6,9.1 7.6,9.1 	"/>
	<path fill="#17E81F" d="M45.6,9.3c-0.1-0.1-0.1-0.1-0.2-0.2c-0.1,0-0.1-0.1-0.2-0.1h-4.9v6.3h2v-4.6h1.1c0,0,0.1,0,0.1,0
		c0,0,0.1,0.1,0.1,0.1c0,0,0.1,0.1,0.1,0.1c0,0,0,0.1,0,0.1l0,5h-5.8l-0.2-0.3l0.7-0.5V9.7c0,0,0-0.1-0.1-0.2c0-0.1-0.1-0.1-0.1-0.2
		c-0.1-0.1-0.1-0.1-0.2-0.2c-0.1,0-0.1-0.1-0.2-0.1h-5v8.8h2v-1.7l-0.5-1.1l0.5-0.4v-3.9h1.6v3.5l-1.3,0.9l1.4,2.7h9.2V9.7
		c0,0,0-0.1-0.1-0.2C45.7,9.4,45.7,9.4,45.6,9.3z"/>
	<polygon fill="#17E81F" points="92.7,7.8 93.3,6.2 92.7,5.9 92,7.5 91.3,6.9 91.3,10.2 93.7,7.9 	"/>
	<path fill="#17E81F" d="M97,12.7v-3c0,0,0-0.1-0.1-0.2c0-0.1-0.1-0.1-0.2-0.2c-0.1-0.1-0.1-0.1-0.2-0.2c-0.1,0-0.1-0.1-0.2-0.1
		h-2.9l-2.2,2.2v1.5l3.6,2.3v1.1h-1.5v-0.9l-2.1-1.2v3.2c0,0,0,0.1,0.1,0.2c0,0.1,0.1,0.1,0.2,0.2c0.1,0.1,0.1,0.1,0.2,0.2
		c0.1,0,0.1,0.1,0.2,0.1h5v-4l-3.6-2.3v-0.8h1.5v0.7L97,12.7z"/>
</g>
</svg>
