<?xml version="1.0" encoding="utf-8"?>
<!-- Generator: Adobe Illustrator 20.1.0, SVG Export Plug-In . SVG Version: 6.00 Build 0)  -->
<svg version="1.1" id="Layer_1" xmlns="http://www.w3.org/2000/svg" xmlns:xlink="http://www.w3.org/1999/xlink" x="0px" y="0px"
	 viewBox="0 0 100 100" enable-background="new 0 0 100 100" xml:space="preserve">
<g id="XMLID_7_">
	<g>
		<path fill="#AA0366" d="M97,21.8L83.4,33.7l1.6-4.6h-3.6l-7.7,22.4h-8.3h0l7.5-22.4h-2.8c0,0,0.1,0.1,0.1,0.1
			c0.4,0.6,0.6,1.4,0.4,2l-4.9,14.3l-3.7,2l1.7,9L63,58.8l-4.5,13l-0.7-4.5l-0.2-1.5l-2.7-17.4l-2.6,7.9l-0.5-1.4L52,54l2.1-6.2
			l-0.4-3.4l2.1-1.4l2.8-8.3h2.6c0.2,0,0.3,0.1,0.5,0.3c0.1,0.2,0.2,0.4,0.2,0.5c0,0.1,0,0.1,0,0.1l-2.4,7.1l-4.2,2.6l3.6,22.8
			l4-11.7L61.1,47l3.9-2.1L69.8,31c0.3-0.8-0.4-1.9-1.5-1.9H54l-8.2,24L45.5,54v0l-1.3,1.2l0,0l0.4-1.1l0.6-1.7H44
			c-0.5-0.6-1.2-0.9-2.5-0.9h3.2l6.9-20.2c0.3-1-0.6-2.2-1.7-2.2H36.6l-7,20.5c-0.2,0.8,0.3,1.8,1.1,1.9h-1.6
			c-0.4-0.5-0.6-1.1-0.6-1.6c0-0.1,0-0.4,0.1-0.7l1.2-3.6l-12.1,5.9h-2l13.5-6.6L36,25.1c0,0,0-0.1,0-0.3c0-0.2-0.1-0.4-0.2-0.6
			c-0.1-0.2-0.2-0.5-0.4-0.7s-0.3-0.4-0.5-0.5c-0.2-0.1-0.4-0.2-0.6-0.2H14L3.9,52.4l2.4,17l7.2-21.6L13,43.5l2.5-1.7l4.5-12.7h6.4
			l-4,11.3l-7.5,3.8l0.9,7.3h-0.9l-0.4-3.6l-1.2,3.6L5.9,72.9L3,52.3l10.4-30.5h21c0.4,0,0.8,0.1,1.1,0.3c0.3,0.2,0.6,0.5,0.8,0.8
			c0.2,0.3,0.3,0.5,0.5,0.8v0c0.1,0.2,0.1,0.4,0.2,0.6l0.9-2.5H97z M85.3,30.9l9.3-8.1H38.4l-1.8,5.5h37.6l-7.7,22.4h6.6l7.7-22.4
			h5.5L85.3,30.9z M58.7,42.2l2.2-6.6h-1.7l-2.7,7.9L58.7,42.2z M52.5,30.8l0.6-1.7h-1.1c0,0,0,0,0,0C52.3,29.7,52.5,30.2,52.5,30.8
			C52.5,30.7,52.5,30.8,52.5,30.8z M21.7,39.8l3.5-9.8h-4.5l-4.4,12.4L21.7,39.8z"/>
		<path fill="#FF70C5" d="M94.6,22.7l-9.3,8.1l0.9-2.7h-5.5l-7.7,22.4h-6.6l7.7-22.4H36.6l1.8-5.5H94.6z M86.8,28.4l5.5-4.8H39.1
			l-1.2,3.7h37.6l-7.7,22.4h4.7l7.7-22.4H87L86.8,28.4z"/>
		<polygon fill="#FF0499" points="92.2,23.6 86.8,28.4 87,27.3 80.1,27.3 72.5,49.7 67.8,49.7 75.4,27.3 37.8,27.3 39.1,23.6 		"/>
		<path fill="#AA1109" d="M66.1,58.8c-1.5,0-2.1-1.4-2.2-2.3c0-0.2,0-0.4,0-0.6l1.5-4.4h0h8.3h14.6c1.6,0,2.5,1.7,2.1,3.2l-7.1,20.9
			l-6.2,7.3H12.8l2.4-7.3h22h17.7h2.3l1.3-3.8l4.5-13H66.1z M89.6,54.3c0.3-1-0.3-1.9-1.3-1.9H74.5l-7,20.4
			c-0.3,1.1,0.3,1.9,1.3,1.9h13.8L89.6,54.3z M76.9,82l4.7-5.5H66.2l-2,5.5H76.9z M72,54.2c0,0,0-0.1,0-0.2c0-0.3-0.1-0.7-0.4-1.1
			c-0.3-0.4-0.6-0.5-0.9-0.5h-2.3H66l-0.7,2l-0.6,1.7c-0.2,0.8,0.3,1.8,1.3,1.8h2.3h2.3l0.7-2L72,54.2C71.9,54.3,71.9,54.3,72,54.2
			L72,54.2z M62.4,82l7.7-22.3h-6.5l-5.8,16.8H55L50.3,82H62.4z M48.5,82l4.7-5.5H37.7L33,82H48.5z M32.1,82l4.7-5.5h-16L16,82H32.1
			z M15.2,82l4.7-5.5h-4.9L13.1,82H15.2z"/>
		<path fill="#FF7C75" d="M88.3,52.4c0.9,0,1.6,0.9,1.3,1.9l-6.9,20.4H68.8c-1,0-1.6-0.7-1.3-1.9l7-20.4H88.3z M88.7,54
			c0.1-0.4-0.1-0.7-0.4-0.7H75.1l-6.8,19.8c0,0,0,0,0,0c-0.1,0.5,0.2,0.7,0.4,0.7H82L88.7,54z"/>
		<path fill="#FF190D" d="M88.3,53.3c0.3,0,0.5,0.3,0.4,0.7L82,73.8H68.8c-0.3,0-0.6-0.3-0.4-0.7c0,0,0,0,0,0l6.8-19.8H88.3z
			 M83,59.2c0.1-0.2,0.1-0.4,0.1-0.5c0-0.4-0.1-0.7-0.4-1.1c-0.3-0.4-0.7-0.7-1.2-0.7h-3.7l-3.7,10.9c-0.1,0.2-0.1,0.4-0.1,0.5
			c0,0.4,0.1,0.7,0.4,1.1c0.3,0.4,0.7,0.6,1.2,0.6h3.7L83,59.2z"/>
		<path fill="#FF7C75" d="M83.1,58.7c0,0.1,0,0.3-0.1,0.5l-3.7,10.9h-3.7c-0.5,0-0.9-0.2-1.2-0.6c-0.3-0.3-0.4-0.7-0.4-1.1
			c0-0.1,0-0.3,0.1-0.5L77.9,57h3.7c0.5,0,0.9,0.2,1.2,0.7C83,58,83.1,58.4,83.1,58.7z M82.2,58.9c0,0,0-0.1,0-0.1
			c0-0.2-0.1-0.4-0.2-0.5c-0.1-0.2-0.3-0.3-0.5-0.3h-3.1L75,68.3c0,0,0,0.1,0,0.1c0,0.2,0.1,0.4,0.2,0.5c0.1,0.2,0.3,0.3,0.5,0.3
			h3.1L82.2,58.9z"/>
		<path fill="#AA1109" d="M82.2,58.7c0,0.1,0,0.1,0,0.1l-3.5,10.4h-3.1c-0.2,0-0.3-0.1-0.5-0.3c-0.1-0.2-0.2-0.4-0.2-0.5
			c0-0.1,0-0.1,0-0.1l3.5-10.4h3.1c0.2,0,0.3,0.1,0.5,0.3C82.2,58.4,82.2,58.5,82.2,58.7z M78.1,68.3l3.2-9.5h-2.2l-3.2,9.5H78.1z"
			/>
		<path fill="#FF7C75" d="M81.6,76.5L76.9,82H64.3l2-5.5H81.6z M76.8,81.1l3.2-3.7H66.8l-1.4,3.7H76.8z"/>
		<polygon fill="#FF190D" points="80,77.4 76.8,81.1 65.5,81.1 66.8,77.4 		"/>
		<path fill="#FF7C75" d="M72,54c0,0.1,0,0.1,0,0.2l0,0.1c0,0,0,0,0,0l-0.5,1.6l-0.7,2h-2.3h-2.3c-1,0-1.5-1-1.3-1.8l0.6-1.7l0.7-2
			h2.3h2.3c0.4,0,0.7,0.2,0.9,0.5C71.9,53.3,72,53.7,72,54z M71.1,54c0-0.2-0.2-0.7-0.4-0.7h-4l-1,3c0,0,0,0,0,0
			c-0.1,0.3,0,0.7,0.4,0.7h4L71.1,54z"/>
		<path fill="#FF190D" d="M70.7,53.3c0.2,0,0.5,0.5,0.4,0.7l-1,3h-4c-0.4,0-0.5-0.4-0.4-0.7c0,0,0,0,0,0l1-3H70.7z"/>
		<path fill="#FF7C75" d="M70.1,59.7L62.4,82H50.3l4.7-5.5h2.8l5.8-16.8H70.1z M61.8,81.1l7.1-20.5h-4.6l-5.8,16.8h-3.3L52,81.1
			H61.8z"/>
		<path fill="#FF70C5" d="M68.2,29.1c1.1,0,1.8,1.1,1.5,1.9L65,44.9L61.1,47l1.7,9.4l-4,11.7l-3.6-22.8l4.2-2.6l2.4-7.1
			c0,0,0-0.1,0-0.1c0-0.2-0.1-0.4-0.2-0.5c-0.1-0.2-0.3-0.3-0.5-0.3h-2.6L55.7,43l-2.1,1.4l0.4,3.4L52,54h0l-1.4-4.2l1,3l1.5-5.1
			l-0.4-3.8l2.3-1.5l2.9-8.6h3.3c0.5,0,0.9,0.2,1.2,0.7c0.2,0.3,0.4,0.7,0.4,1.1c0,0.1,0,0.3-0.1,0.5l-2.5,7.3l-3.9,2.5l2.9,18.6
			l2.7-8.1l-1.8-9.8l4.2-2.2l4.6-13.6c0-0.1,0-0.2-0.1-0.4c-0.1-0.1-0.3-0.3-0.6-0.3H54.7l-7.3,21.7l-1.5,1.4h0l8.2-24H68.2z"/>
		<path fill="#FF0499" d="M68.8,30.3c0.1,0.2,0.1,0.3,0.1,0.4l-4.6,13.6l-4.2,2.2l1.8,9.8l-2.7,8.1l-2.9-18.6l3.9-2.5l2.5-7.3
			c0.1-0.2,0.1-0.4,0.1-0.5c0-0.4-0.1-0.7-0.4-1.1c-0.3-0.4-0.7-0.7-1.2-0.7h-3.3L55,42.4l-2.3,1.5l0.4,3.8l-1.5,5.1l-1-3l-0.2-0.7
			l-3,2.7L54.7,30h13.6C68.5,30,68.7,30.2,68.8,30.3z"/>
		<polygon fill="#FF190D" points="68.9,60.6 61.8,81.1 52,81.1 55.2,77.4 58.4,77.4 64.2,60.6 		"/>
		<polygon fill="#AA1109" points="57.5,65.8 57.8,67.2 54.9,75.6 37.2,75.6 42.8,59.2 42.9,59.2 44.2,58 38.5,74.8 54.2,74.8 
			57,66.7 51.5,66.7 50.6,69.3 46.9,69.3 50.4,58.9 50.8,60.3 48.1,68.4 49.9,68.4 50.8,65.8 		"/>
		<polygon fill="#FF7C75" points="57,66.7 54.2,74.8 38.5,74.8 44.2,58 44.2,58 45.4,56.9 39.7,73.9 53.6,73.9 55.8,67.6 52.1,67.6 
			51.2,70.2 45.6,70.2 49.9,57.6 50.4,58.9 50.4,58.9 46.9,69.3 50.6,69.3 51.5,66.7 		"/>
		<polygon fill="#FF190D" points="55.8,67.6 53.6,73.9 39.7,73.9 45.4,56.9 48.7,54 49.9,57.6 45.6,70.2 51.2,70.2 52.1,67.6 		"/>
		<path fill="#FF7C75" d="M53.2,76.5L48.5,82H33l4.7-5.5H53.2z M48.4,81.1l3.2-3.7H37.8l-3.2,3.7H48.4z"/>
		<polygon fill="#AA113B" points="51.7,54.9 52.2,56.3 50.8,60.3 50.4,58.9 50.7,58 		"/>
		<polygon fill="#FFA8BF" points="47,52.7 45.5,54 45.5,54 45.8,53.1 45.8,53.1 47.4,51.7 50.4,49.1 50.6,49.8 52,54 52,54 
			51.7,54.9 51.7,54.9 51.3,53.6 50.1,50 		"/>
		<polygon fill="#FF7CA0" points="51.7,54.9 51.7,54.9 50.7,58 50.2,56.7 51.3,53.6 		"/>
		<path fill="#FF70C5" d="M49.8,29.1c1.2,0,2.1,1.2,1.7,2.2l-6.9,20.2h-3.2l-10.8,0c-0.8-0.1-1.3-1-1.1-1.9l7-20.5H49.8z M44,50.6
			l6.7-19.9c0-0.2-0.1-0.3-0.2-0.6c0-0.1-0.1-0.2-0.2-0.2H37.1l-6.8,19.9c0,0,0,0,0,0c0,0.2,0.1,0.3,0.2,0.5c0,0.1,0.1,0.2,0.2,0.2
			H44z"/>
		<polygon fill="#FF190D" points="51.6,77.4 48.4,81.1 34.6,81.1 37.8,77.4 		"/>
		<polygon fill="#FF1A58" points="50.1,50 51.3,53.6 50.2,56.7 49,53.1 46,55.8 46,55.7 47,52.7 		"/>
		<path fill="#FF0499" d="M50.7,30.7L44,50.6H30.8c-0.1,0-0.2-0.1-0.2-0.2c-0.1-0.2-0.2-0.4-0.2-0.5c0,0,0,0,0,0L37.1,30h13.2
			c0.1,0,0.1,0.1,0.2,0.2C50.6,30.4,50.7,30.6,50.7,30.7z M45,35.9c0.1-0.2,0.1-0.4,0.1-0.5c0-0.4-0.1-0.7-0.4-1.1
			c-0.3-0.4-0.7-0.7-1.2-0.7h-3.7l-3.8,11C36,44.9,36,45.1,36,45.2c0,0.4,0.1,0.7,0.4,1.1c0.3,0.4,0.7,0.6,1.2,0.6h3.7L45,35.9z"/>
		<polygon fill="#FFA8BF" points="50.2,56.7 50.7,58 50.4,58.9 50.4,58.9 49.9,57.6 48.7,54 45.4,56.9 44.2,58 44.2,58 44.5,57.1 
			44.5,57.1 46,55.8 49,53.1 		"/>
		<polygon fill="#FF7CA0" points="47,52.7 46,55.7 46,55.8 44.5,57.1 44.5,57.1 45.5,54 45.5,54 45.5,54 		"/>
		<polygon fill="#AA113B" points="45.5,54 44.5,57.1 44.2,58 42.9,59.2 42.8,59.2 44.2,55.2 44.2,55.2 		"/>
		<path fill="#FF70C5" d="M45.1,35.4c0,0.1,0,0.3-0.1,0.5l-3.7,11h-3.7c-0.5,0-0.9-0.2-1.2-0.6c-0.3-0.3-0.4-0.7-0.4-1.1
			c0-0.1,0-0.3,0.1-0.5l3.8-11h3.7c0.5,0,0.9,0.2,1.2,0.7C45,34.7,45.1,35,45.1,35.4z M44.2,35.6c0,0,0-0.1,0-0.1
			c0-0.2-0.1-0.4-0.2-0.5c-0.1-0.2-0.3-0.3-0.5-0.3h-3.1l-3.6,10.5c0,0,0,0.1,0,0.1c0,0.2,0.1,0.4,0.2,0.5c0.1,0.2,0.3,0.3,0.5,0.3
			h3.1L44.2,35.6z"/>
		<path fill="#AA1109" d="M44.6,54C44.6,54.1,44.6,54.1,44.6,54l-0.4,1.2l-1.4,4l-5.6,16.4h-22l-2.4,7.3L8.9,94.1L6,73.4l-0.1-0.4
			l7.3-21.4h1.6h0.9h2h11.3c0,0,0,0,0,0h1.6c0.1,0,0.1,0,0.2,0h10.6c1.3,0,2,0.3,2.5,0.9c0,0,0,0,0,0C44.4,53,44.6,53.5,44.6,54z
			 M43.5,54.6c0.3-1-0.6-2.2-1.7-2.2H28.5l-7,20.5c-0.2,0.9,0.4,1.9,1.3,1.9h13.8L43.5,54.6z M25.3,59.3l2.3-6.9H13.9L6.9,73.2
			l2.4,17l6.8-19.9h4.5l1.8-5.4h-4.5l1.9-5.7H25.3z M23.6,64l1.3-3.9h-4.5L19.1,64H23.6z M15.6,74.7h5.5c-0.6-0.3-0.7-1-0.5-1.8
			l0.5-1.6h-4.3L15.6,74.7z"/>
		<path fill="#B2016B" d="M44.2,35.4c0,0.1,0,0.1,0,0.1L40.6,46h-3.1c-0.2,0-0.3-0.1-0.5-0.3c-0.1-0.2-0.2-0.4-0.2-0.5
			c0-0.1,0-0.1,0-0.1l3.6-10.5h3.1c0.2,0,0.3,0.1,0.5,0.3C44.2,35.1,44.2,35.2,44.2,35.4z M40,45.1l3.3-9.6h-2.2l-3.3,9.6H40z"/>
		<path fill="#FF7C75" d="M41.8,52.4c1.2,0,2.1,1.2,1.7,2.2l-6.9,20.2H22.8c-0.9,0-1.5-1-1.3-1.9l7-20.5H41.8z M42.4,55
			c0.3-0.9-0.3-1.7-1.1-1.7H29.1l-6.2,18.9c-0.3,1,0.2,1.7,1.1,1.7h12.2L42.4,55z"/>
		<path fill="#FF190D" d="M41.3,53.3c0.8,0,1.4,0.8,1.1,1.7l-6.1,18.9H24c-1,0-1.4-0.8-1.1-1.7l6.2-18.9H41.3z M37,59.2
			c0.1-0.2,0.1-0.4,0.1-0.5c0-0.4-0.1-0.7-0.4-1.1C36.4,57.2,36,57,35.5,57h-3.7L28,68c-0.1,0.2-0.1,0.4-0.1,0.5
			c0,0.4,0.1,0.7,0.4,1.1c0.3,0.4,0.7,0.6,1.2,0.6h3.7L37,59.2z"/>
		<path fill="#FF7C75" d="M37.1,58.7c0,0.1,0,0.3-0.1,0.5l-3.7,11h-3.7c-0.5,0-0.9-0.2-1.2-0.6c-0.3-0.3-0.4-0.7-0.4-1.1
			c0-0.1,0-0.3,0.1-0.5l3.8-11h3.7c0.5,0,0.9,0.2,1.2,0.7C36.9,58,37.1,58.4,37.1,58.7z M36.1,58.9c0,0,0-0.1,0-0.1
			c0-0.2-0.1-0.4-0.2-0.5c-0.1-0.2-0.3-0.3-0.5-0.3h-3.1l-3.6,10.5c0,0,0,0.1,0,0.1c0,0.2,0.1,0.4,0.2,0.5c0.1,0.2,0.3,0.3,0.5,0.3
			h3.1L36.1,58.9z"/>
		<path fill="#FF7C75" d="M36.8,76.5L32.1,82H16l4.7-5.5H36.8z M32,81.1l3.2-3.7H20.9l-3.2,3.7H32z"/>
		<path fill="#AA1109" d="M36.2,58.7c0,0.1,0,0.1,0,0.1l-3.5,10.5h-3.1c-0.2,0-0.3-0.1-0.5-0.3c-0.1-0.2-0.2-0.4-0.2-0.5
			c0-0.1,0-0.1,0-0.1l3.6-10.5h3.1c0.2,0,0.3,0.1,0.5,0.3C36.1,58.4,36.2,58.5,36.2,58.7z M31.9,68.4l3.3-9.6h-2.2l-3.3,9.6H31.9z"
			/>
		<path fill="#FF70C5" d="M36.1,24.8c0,0.2,0,0.3,0,0.3l-6.8,19.9l-13.5,6.6l-0.9-7.3l7.5-3.8l4-11.3h-6.4l-4.5,12.7L13,43.5
			l0.5,4.3L6.3,69.4l-2.4-17L14,22.7h20.4c0.2,0,0.4,0.1,0.6,0.2c0.2,0.1,0.4,0.3,0.5,0.5s0.3,0.4,0.4,0.7
			C36,24.4,36.1,24.6,36.1,24.8z M28.5,44.3l6.6-19.5c0,0,0-0.1-0.1-0.3c-0.1-0.2-0.2-0.4-0.3-0.5c-0.1-0.1-0.2-0.2-0.3-0.3
			c-0.1,0-0.1-0.1-0.1-0.1H14.6L4.8,52.5l1.8,13l5.9-17.8L12.1,43l2.7-1.8l4.6-13h8.3l-4.6,12.9l-7.3,3.7l0.6,5.4L28.5,44.3z"/>
		<path fill="#FF0499" d="M35.2,24.8l-6.6,19.5l-12,5.9l-0.6-5.4l7.3-3.7l4.6-12.9h-8.3l-4.6,13L12.1,43l0.5,4.7L6.7,65.5l-1.8-13
			l9.8-28.9h19.7c0,0,0.1,0,0.1,0.1c0.1,0.1,0.2,0.2,0.3,0.3c0.1,0.2,0.2,0.3,0.3,0.5C35.2,24.7,35.2,24.8,35.2,24.8z"/>
		<polygon fill="#FF190D" points="35.1,77.4 32,81.1 17.7,81.1 20.9,77.4 		"/>
		<path fill="#FF7C75" d="M27.6,52.4l-2.3,6.9h-5.5l-1.9,5.7h4.5l-1.8,5.4h-4.5L9.3,90.2l-2.4-17l7.1-20.8H27.6z M24.7,58.4l1.7-5.1
			H14.6l-6.8,20l1.9,13.1l5.8-17h4.5l1.2-3.6h-4.5l2.5-7.4H24.7z"/>
		<polygon fill="#FF190D" points="26.4,53.3 24.7,58.4 19.2,58.4 16.6,65.8 21.1,65.8 19.9,69.4 15.4,69.4 9.6,86.4 7.8,73.3 
			14.6,53.3 		"/>
		<path fill="#FF7C75" d="M19.8,76.5L15.2,82h-2.1l1.8-5.5H19.8z M15,81.1l3.2-3.7h-2.6l-1.2,3.7H15z"/>
		<polygon fill="#FF190D" points="18.2,77.4 15,81.1 14.3,81.1 15.6,77.4 		"/>
	</g>
	<g>
	</g>
</g>
</svg>
