<?xml version="1.0" encoding="utf-8"?>
<!-- Generator: Adobe Illustrator 20.1.0, SVG Export Plug-In . SVG Version: 6.00 Build 0)  -->
<svg version="1.1" id="Layer_1" xmlns="http://www.w3.org/2000/svg" xmlns:xlink="http://www.w3.org/1999/xlink" x="0px" y="0px"
	 viewBox="0 0 100 100" enable-background="new 0 0 100 100" xml:space="preserve">
<g>
	<rect x="0" fill="none" width="100" height="100"/>
</g>
<path fill="none" stroke="#000000" stroke-width="2" stroke-miterlimit="10" d="M2.5,20.7l1.5,29.5c0,0.3,0.2,0.5,0.5,0.5l5.3,0.2
	c1,0,2.9,0.3,3.9,1.7c0.7,0.9,0.8,2.2,0.3,3.7L8.7,73.9c-0.1,0.4,0,0.6,0.5,0.6h12.7c2.8,0,4.6,0.6,3.8,3.8l-0.4,1.2
	c-0.2,0.6,0.3,1.1,0.9,0.4c0,0,7.4-10.4,9.3-10.4c1.8,0,2.3,1.9,2.7,4.5c0.1,0.2,0.3,0.4,0.5,0.4h14.2c2.2,0,4.6-0.1,6,5.5
	c0.1,0.4,0.5,0.6,0.9,0.2l10.5-10.9c1-1,2.2-1,2.9-0.6c0.7,0.4,1,1.3,0.7,2.2l-1.8,6.2c-0.6,1.9,0.8,3.1,1.9,3.1h15.3
	c0.2,0,0.4-0.1,0.5-0.4l4.5-15.8c0-0.1,0-0.3-0.1-0.4c0,0-6.5-8.5-6-10.3l9.1-30.8c0.1-0.2,0.1-0.4,0.1-0.5c0-0.4-0.1-0.9-0.4-1.3
	c-0.4-0.6-0.9-0.8-1.3-0.8H17.5c-0.2,0-0.4,0.1-0.5,0.4c0,0-4,12.1-4.8,12c-1-0.1-1.6-11.9-1.6-11.9c0-0.3-0.2-0.5-0.5-0.5l-6.4-0.4
	C2.9,19.6,2.5,20.1,2.5,20.7"/>
</svg>
